<?xml version="1.0" encoding="UTF-8" standalone="no"?><!DOCTYPE svg PUBLIC "-//W3C//DTD SVG 1.1//EN" "http://www.w3.org/Graphics/SVG/1.1/DTD/svg11.dtd"><svg width="100%" height="100%" viewBox="0 0 30 120" version="1.1" xmlns="http://www.w3.org/2000/svg" xmlns:xlink="http://www.w3.org/1999/xlink" xml:space="preserve" xmlns:serif="http://www.serif.com/" style="fill-rule:evenodd;clip-rule:evenodd;stroke-linejoin:round;stroke-miterlimit:1.41421;"><path d="M15,95c5.519,0 10,4.481 10,10c0,5.519 -4.481,10 -10,10c-5.519,0 -10,-4.481 -10,-10c0,-5.519 4.481,-10 10,-10Zm0,2.5c4.139,0 7.5,3.361 7.5,7.5c0,4.139 -3.361,7.5 -7.5,7.5c-4.139,0 -7.5,-3.361 -7.5,-7.5c0,-4.139 3.361,-7.5 7.5,-7.5Zm0,4.5c1.656,0 3,1.344 3,3c0,1.656 -1.344,3 -3,3c-1.656,0 -3,-1.344 -3,-3c0,-1.656 1.344,-3 3,-3Z" style="fill:#f44;"/><path d="M15,65c5.519,0 10,4.481 10,10c0,5.519 -4.481,10 -10,10c-5.519,0 -10,-4.481 -10,-10c0,-5.519 4.481,-10 10,-10Zm0,2.5c4.139,0 7.5,3.361 7.5,7.5c0,4.139 -3.361,7.5 -7.5,7.5c-4.139,0 -7.5,-3.361 -7.5,-7.5c0,-4.139 3.361,-7.5 7.5,-7.5Zm0,4.5c1.656,0 3,1.344 3,3c0,1.656 -1.344,3 -3,3c-1.656,0 -3,-1.344 -3,-3c0,-1.656 1.344,-3 3,-3Z" style="fill:#4f4;"/><path d="M15,35c5.519,0 10,4.481 10,10c0,5.519 -4.481,10 -10,10c-5.519,0 -10,-4.481 -10,-10c0,-5.519 4.481,-10 10,-10Zm0,2.5c4.139,0 7.5,3.361 7.5,7.5c0,4.139 -3.361,7.5 -7.5,7.5c-4.139,0 -7.5,-3.361 -7.5,-7.5c0,-4.139 3.361,-7.5 7.5,-7.5Zm0,4.5c1.656,0 3,1.344 3,3c0,1.656 -1.344,3 -3,3c-1.656,0 -3,-1.344 -3,-3c0,-1.656 1.344,-3 3,-3Z" style="fill:#323232;"/><path d="M15,5c5.519,0 10,4.481 10,10c0,5.519 -4.481,10 -10,10c-5.519,0 -10,-4.481 -10,-10c0,-5.519 4.481,-10 10,-10Zm0,2.5c4.139,0 7.5,3.361 7.5,7.5c0,4.139 -3.361,7.5 -7.5,7.5c-4.139,0 -7.5,-3.361 -7.5,-7.5c0,-4.139 3.361,-7.5 7.5,-7.5Zm0,4.5c1.656,0 3,1.344 3,3c0,1.656 -1.344,3 -3,3c-1.656,0 -3,-1.344 -3,-3c0,-1.656 1.344,-3 3,-3Z" style="fill:#888;"/></svg>