<?xml version="1.0" encoding="UTF-8" standalone="no"?><!DOCTYPE svg PUBLIC "-//W3C//DTD SVG 1.1//EN" "http://www.w3.org/Graphics/SVG/1.1/DTD/svg11.dtd"><svg width="100%" height="100%" viewBox="0 0 400 400" version="1.1" xmlns="http://www.w3.org/2000/svg" xmlns:xlink="http://www.w3.org/1999/xlink" xml:space="preserve" xmlns:serif="http://www.serif.com/" style="fill-rule:evenodd;clip-rule:evenodd;stroke-linejoin:round;stroke-miterlimit:1.41421;"><path d="M225,200c0,13.798 -11.202,25 -25,25c-13.798,0 -25,-11.202 -25,-25c0,-13.798 11.202,-25 25,-25c13.798,0 25,11.202 25,25Z" style="fill:#fff;"/><path d="M150,200c0,13.798 -11.202,25 -25,25c-13.798,0 -25,-11.202 -25,-25c0,-13.798 11.202,-25 25,-25c13.798,0 25,11.202 25,25Z" style="fill:#fff;"/><path d="M75,200c0,13.798 -11.202,25 -25,25c-13.798,0 -25,-11.202 -25,-25c0,-13.798 11.202,-25 25,-25c13.798,0 25,11.202 25,25Z" style="fill:#fff;"/><path d="M300,200c0,13.798 -11.202,25 -25,25c-13.798,0 -25,-11.202 -25,-25c0,-13.798 11.202,-25 25,-25c13.798,0 25,11.202 25,25Z" style="fill:#fff;"/><path d="M375,200c0,13.798 -11.202,25 -25,25c-13.798,0 -25,-11.202 -25,-25c0,-13.798 11.202,-25 25,-25c13.798,0 25,11.202 25,25Z" style="fill:#fff;"/><path d="M225,350c0,13.798 -11.202,25 -25,25c-13.798,0 -25,-11.202 -25,-25c0,-13.798 11.202,-25 25,-25c13.798,0 25,11.202 25,25Z" style="fill:#fff;"/><path d="M150,350c0,13.798 -11.202,25 -25,25c-13.798,0 -25,-11.202 -25,-25c0,-13.798 11.202,-25 25,-25c13.798,0 25,11.202 25,25Z" style="fill:#fff;"/><path d="M75,350c0,13.798 -11.202,25 -25,25c-13.798,0 -25,-11.202 -25,-25c0,-13.798 11.202,-25 25,-25c13.798,0 25,11.202 25,25Z" style="fill:#fff;"/><path d="M300,350c0,13.798 -11.202,25 -25,25c-13.798,0 -25,-11.202 -25,-25c0,-13.798 11.202,-25 25,-25c13.798,0 25,11.202 25,25Z" style="fill:#fff;"/><path d="M375,350c0,13.798 -11.202,25 -25,25c-13.798,0 -25,-11.202 -25,-25c0,-13.798 11.202,-25 25,-25c13.798,0 25,11.202 25,25Z" style="fill:#fff;"/><path d="M225,275c0,13.798 -11.202,25 -25,25c-13.798,0 -25,-11.202 -25,-25c0,-13.798 11.202,-25 25,-25c13.798,0 25,11.202 25,25Z" style="fill:#fff;"/><path d="M150,275c0,13.798 -11.202,25 -25,25c-13.798,0 -25,-11.202 -25,-25c0,-13.798 11.202,-25 25,-25c13.798,0 25,11.202 25,25Z" style="fill:#fff;"/><path d="M75,275c0,13.798 -11.202,25 -25,25c-13.798,0 -25,-11.202 -25,-25c0,-13.798 11.202,-25 25,-25c13.798,0 25,11.202 25,25Z" style="fill:#fff;"/><path d="M300,275c0,13.798 -11.202,25 -25,25c-13.798,0 -25,-11.202 -25,-25c0,-13.798 11.202,-25 25,-25c13.798,0 25,11.202 25,25Z" style="fill:#fff;"/><path d="M375,275c0,13.798 -11.202,25 -25,25c-13.798,0 -25,-11.202 -25,-25c0,-13.798 11.202,-25 25,-25c13.798,0 25,11.202 25,25Z" style="fill:#fff;"/><path d="M225,125c0,13.798 -11.202,25 -25,25c-13.798,0 -25,-11.202 -25,-25c0,-13.798 11.202,-25 25,-25c13.798,0 25,11.202 25,25Z" style="fill:#fff;"/><path d="M150,125c0,13.798 -11.202,25 -25,25c-13.798,0 -25,-11.202 -25,-25c0,-13.798 11.202,-25 25,-25c13.798,0 25,11.202 25,25Z" style="fill:#fff;"/><path d="M75,125c0,13.798 -11.202,25 -25,25c-13.798,0 -25,-11.202 -25,-25c0,-13.798 11.202,-25 25,-25c13.798,0 25,11.202 25,25Z" style="fill:#fff;"/><path d="M300,125c0,13.798 -11.202,25 -25,25c-13.798,0 -25,-11.202 -25,-25c0,-13.798 11.202,-25 25,-25c13.798,0 25,11.202 25,25Z" style="fill:#fff;"/><path d="M375,125c0,13.798 -11.202,25 -25,25c-13.798,0 -25,-11.202 -25,-25c0,-13.798 11.202,-25 25,-25c13.798,0 25,11.202 25,25Z" style="fill:#fff;"/><path d="M225,50c0,13.798 -11.202,25 -25,25c-13.798,0 -25,-11.202 -25,-25c0,-13.798 11.202,-25 25,-25c13.798,0 25,11.202 25,25Z" style="fill:#fff;"/><path d="M150,50c0,13.798 -11.202,25 -25,25c-13.798,0 -25,-11.202 -25,-25c0,-13.798 11.202,-25 25,-25c13.798,0 25,11.202 25,25Z" style="fill:#fff;"/><path d="M75,50c0,13.798 -11.202,25 -25,25c-13.798,0 -25,-11.202 -25,-25c0,-13.798 11.202,-25 25,-25c13.798,0 25,11.202 25,25Z" style="fill:#fff;"/><path d="M300,50c0,13.798 -11.202,25 -25,25c-13.798,0 -25,-11.202 -25,-25c0,-13.798 11.202,-25 25,-25c13.798,0 25,11.202 25,25Z" style="fill:#fff;"/><path d="M375,50c0,13.798 -11.202,25 -25,25c-13.798,0 -25,-11.202 -25,-25c0,-13.798 11.202,-25 25,-25c13.798,0 25,11.202 25,25Z" style="fill:#fff;"/></svg>